<?xml version="1.0" encoding="UTF-8"?>
<svg id="a" xmlns="http://www.w3.org/2000/svg" width="885.69" height="885.25" viewBox="0 0 885.69 885.25">
  <path d="m872.67,442.32v301.25c0,63.92-48.87,119.31-112.33,127.19-7.35.91-14.79,1.42-22.19,1.42-197.71.08-395.41.08-593.12.05-57.41,0-106.42-34.37-125-87.58-4.62-13.23-7.03-26.86-7.03-40.91.02-200.99,0-401.98.02-602.97,0-59.58,44.7-113.85,103.24-124.94,9.16-1.73,18.63-2.7,27.95-2.71,199.82-.15,399.66-.12,599.48-.12,63.35,0,118.43,47.39,127.69,109.96.88,5.96,1.23,12.06,1.24,18.09.08,100.42.05,200.84.05,301.25h0Zm-221.79,58.04c.05-13.13-1.97-22.82-7.18-31.63-1.49-2.53-3.34-5.61-5.8-6.71-20.3-9.09-37.05-22.73-52.34-38.59-2.85-2.96-7.29-5.09-11.37-6.04-13.19-3.08-26.64-3.11-39.43,1.49-15.64,5.62-31.08,11.9-46.26,18.67-16.02,7.14-31.28,16.04-47.52,22.59-14.94,6.02-30.64,10.22-46.17,14.62-5.29,1.49-11.18.74-16.66,1.76-7.28,1.36-9.33,7.32-4.26,12.69,2.93,3.1,6.77,5.58,10.61,7.53,12.12,6.17,25.21,5.44,38.26,4.64,10.11-.61,20.31-1.99,30.35-1.37,14.33.89,19.17,8.28,15.54,22.18-4.36,16.71-12.07,32.07-22.03,46.01-19.11,26.72-38.92,52.95-58.56,79.29-7.15,9.59-14.76,18.84-21.91,28.44-5.19,6.97-3.79,14.53,3.32,20.36,6.1,5.01,11.8,4.07,18.23-2.48,26.76-27.24,53.59-54.4,80.46-81.52,1.66-1.68,3.77-3.09,5.92-4.09,3.9-1.81,7.04-.43,7.21,3.75.17,3.9-.5,8.2-2.09,11.75-10.45,23.31-21.32,46.44-31.91,69.69-6.33,13.9-12.55,27.85-18.55,41.89-3.1,7.26.55,17.41,6.74,20.13,8.24,3.62,15.47.67,20.09-7.57,19.81-35.38,39.75-70.69,59.7-105.98,1.33-2.35,2.99-4.59,4.89-6.49,2.66-2.67,4.94-2.08,6,1.58.7,2.42,1.04,5.1.8,7.59-1.64,17.16-3.43,34.31-5.26,51.45-2.15,20-4.47,39.98-6.52,59.98-.67,6.54,2.8,11.6,8.22,13.05,8.25,2.19,12.85.4,16.19-6.49.91-1.89,1.72-3.9,2.14-5.95,1.87-9.33,3.67-18.67,5.35-28.04,4.88-27.21,9.63-54.44,14.63-81.63.7-3.8,2.09-7.61,3.85-11.07,2.56-5.01,6.6-5.26,9.88-.62,1.86,2.64,3.58,5.82,4.03,8.95,1.82,12.87,3.13,25.81,4.61,38.73,1.76,15.33,3.29,30.67,5.33,45.96.98,7.37,6.1,11.53,12.11,11.02,6.77-.57,10.68-4.83,11-12.63.76-18.44,1.54-36.89,1.89-55.35.3-16.03-.27-32.08.11-48.1.29-12.14,2.72-23.9,7.72-35.19,6.43-14.5,12.54-29.18,17.94-44.08,5.5-15.2,10.26-30.7,10.71-44.15h0Zm-206.8,23.45c-2.29,0-3.03-.03-3.77,0-12.4.49-24.82,1.56-37.21,1.32-16.52-.32-31.6-5.61-43.98-16.88-9.96-9.07-14.08-20.49-10.26-33.69,3.79-13.05,13.62-19.59,26.58-21.6,9.97-1.54,20.11-1.7,29.75-5.43,10.28-3.98,20.86-7.19,31.21-11.01,1.41-.51,3.14-2.54,3.2-3.94.81-19.2,1.11-38.42,2.01-57.62.8-16.93,2.19-33.82,3.3-50.72.74-11.33,1.72-22.64,2.07-33.97.23-7.62-6.04-13.11-14.65-13.76-6.6-.5-11.48,3.32-12.83,10.27-6.77,34.85-13.47,69.7-20.27,104.54-.98,5.03-1.95,10.1-3.65,14.91-.66,1.88-3.23,4.16-5.05,4.26-1.85.1-4.6-1.82-5.62-3.61-1.67-2.94-2.68-6.42-3.24-9.78-6.51-39.51-12.91-79.05-19.3-118.57-.88-5.48-4.03-9.27-8.41-12.38-5.09-3.61-10-2.72-14.8.37-4.81,3.09-7.56,7.29-6.68,13.32.52,3.59.96,7.2,1.22,10.82,2.77,37.72,5.51,75.44,8.17,113.17.17,2.51-.24,5.13-.78,7.62-.62,2.9-2.67,3.83-5,1.89-2.16-1.81-4.17-3.99-5.67-6.37-2.65-4.22-4.94-8.67-7.24-13.09-14.63-28.2-29.11-56.46-43.85-84.6-4.85-9.26-9.59-10.51-18.92-5.97-5.53,2.69-7.57,7.45-5.22,15.06,2.17,7.05,5.12,13.88,8.06,20.66,12.39,28.58,24.98,57.05,37.25,85.68,1.62,3.78,2.01,8.16,2.5,12.32.43,3.66-2.03,5.93-5.28,4.71-4.37-1.65-9.17-3.7-12.2-7.03-9.87-10.87-19-22.4-28.45-33.66-8.27-9.86-16.43-19.83-24.92-29.52-6.82-7.78-16.88-6.26-20.55,2.72-1.64,4.01-.33,7.46,1.73,10.72,13.68,21.6,26.85,43.54,41.32,64.6,15.38,22.38,27.42,45.5,30.52,73.19,2.37,21.15,8.62,41.73,16.71,61.55,5.81,14.24,14.5,26.12,28.53,33.51,4.38,2.3,8.73,2.48,13.56,2.15,10.7-.72,21.44-.6,32.15-1.1,1.94-.09,4.54-.96,5.61-2.39,15.72-21.14,31.57-42.2,46.63-63.81,5.99-8.59,10.12-18.47,15.68-28.84h.03Zm-4.63-310.09c.28-.26.55-.53.83-.8-5.73-6.81-11.44-13.64-17.17-20.45-31.4-37.3-62.8-74.61-94.22-111.9-4.73-5.61-8-5.73-13.17-.61-4.42,4.37-8.9,8.67-13.14,13.21-2.14,2.28-4.37,3.18-7.52,3.16-22.43-.13-44.86-.08-67.3-.07-31.65.02-61.02,8.31-87.94,24.89-17.92,11.04-33.31,24.74-43.04,43.85-3.67,7.21-6.09,14.83-5.83,23.06.12,3.96,2.52,6.09,6.22,6.61,3.2.46,6.66-2.42,6.84-5.89.67-13.27,6.8-24.11,15.45-33.54,27.77-30.28,63.15-44.04,103.5-45.45,24.98-.87,50.02-.21,75.02-.07,2.09,0,4.51.83,6.18,2.09,37.31,28,74.53,56.11,111.78,84.2,7.83,5.91,15.69,11.8,23.52,17.69h0Zm5.91-.66c.17.25.36.51.53.77,1.08-.72,2.19-1.39,3.22-2.17,44.15-33.29,88.28-66.62,132.51-99.83,1.86-1.4,4.62-2.28,6.96-2.3,23.65-.17,47.31-.36,70.96-.04,31.87.44,61.35,9.07,87.19,28.02,17.63,12.93,33.07,27.71,35.01,51.56.28,3.47,3.17,5.63,6.8,5.42,3.56-.21,6-2.37,6.15-6.08.12-3-.07-6.09-.66-9.02-2.81-13.79-10.04-25.31-19.66-35.2-30.58-31.44-68.48-46.48-111.87-47.79-24.09-.73-48.21-.07-72.32-.24-2.12-.02-4.65-1.12-6.25-2.54-4.52-4.02-8.66-8.47-12.96-12.75-6.38-6.36-9.14-6.2-15.04.8-23.81,28.27-47.63,56.55-71.43,84.82-13.06,15.52-26.1,31.05-39.16,46.58h0Zm230.6,284.08c-.75-12.18-4.38-27.02-9.52-35.89-1.61-2.79-3.56-5.29-7.21-3.39-3.61,1.89-3.42,4.72-1.71,8.08,5.18,10.14,8.18,20.96,7.35,32.35-.62,8.54-2.19,17.03-3.81,25.46-.63,3.29.07,5.41,2.9,6.68,3.16,1.42,5.2-.38,6.54-3.07.6-1.2,1.08-2.53,1.29-3.86,1.44-8.77,2.79-17.57,4.17-26.35h0Zm-403.32,98.09c.6,2.02.8,2.91,1.13,3.76,8.38,21.25,21.35,38.53,42.36,48.85,4.17,2.05,7.14,1.43,8.43-1.82,1.57-3.97-1.01-5.72-4.13-7.25-10.81-5.34-19.95-12.77-26.29-23.06-4.11-6.65-7.2-13.92-11.19-20.65-1.08-1.82-3.78-3.67-5.73-3.67-1.64,0-3.28,2.67-4.58,3.83h0Zm-13.09,4.46c-5.34-.21-7.55,3.08-6.24,7.68,4.28,15.01,11.03,28.81,22.16,39.92,4.97,4.96,10.91,9,16.66,13.12,2.46,1.77,5.42,1.34,7.04-1.56,1.56-2.79.7-5.32-2.07-6.97-18.33-10.96-28.47-27.7-34.2-47.71-.56-1.96-2.6-3.5-3.37-4.48h.02Zm441.32-103.85c-2.25-9.6-4.24-18.85-6.66-28-.87-3.33-3.03-6.51-7.23-4.82-3.98,1.6-3.49,4.79-2.17,8.38,3.78,10.17,6.02,20.7,3.98,31.55-1.61,8.55-3.86,17-6.07,25.43-.81,3.1-1.06,5.78,2.18,7.39,3.36,1.66,5.44-.2,6.92-3.05.63-1.2,1.37-2.42,1.67-3.71,2.5-11,4.91-22.02,7.38-33.15h0Z" fill="#000"/>
</svg>