<?xml version="1.0" encoding="UTF-8"?>
<svg id="a" data-name="Layer 1" xmlns="http://www.w3.org/2000/svg" width="365" height="108" viewBox="0 0 365 108">
  <polygon points="269.95 34.02 255.75 60.31 272.68 60.31 270.21 34.02 269.95 34.02" fill="#fff"/>
  <path d="m10.59,9v12.93h18.7v2.34H10.59v12.57h18.7v2.34H10.59v12.96h18.7v2.34H10.59v13.17h18.7v2.34H10.59v12.61h18.7v2.34H10.59v12.81h348.18V9H10.59Zm84.82,31.24h-17.55c.6-2.45.2-4.29-1.1-5.61-1.21-1.31-3.35-2.02-6.33-2.02-4.04,0-8.1,2.63-8.77,5.78-.98,4.64,4.31,6.13,8.7,7.36,10.05,2.72,25.26,3.77,21.63,20.86-2.84,13.32-17.34,19.65-32,19.65s-26.82-4.31-23.43-21.49h17.55c-1.35,5.96,2.34,9.2,8.66,9.2,4.05,0,9.67-2.1,10.56-6.31,1.83-8.59-11.55-6.75-24.04-12.8-5.81-2.8-7.72-8.59-6.27-15.42,3.89-14.99,17.93-19.1,31.18-19.1s25.51,4.64,21.22,19.89Zm53.78,19.02h-28.25l-2.85,13.41h30.71l-2.62,12.27h-48.26l13.47-63.28h48.26l-2.62,12.27h-30.71l-2.78,13.06h28.26l-2.6,12.27Zm44.37,25.68l-11.19-48.46h-.18l-10.31,48.46h-15.79l13.47-63.28h24.57l11.2,47.15.21-.18,10-46.97h15.79l-13.47,63.28h-24.31Zm82.4,0l-1.58-12.36h-25.71l-6.76,12.36h-17.55l38.48-63.28h21.41l11.54,63.28h-19.83Zm44.05,0h-17.55l13.47-63.28h17.55l-13.47,63.28Zm38.76,0h-18.7v-2.34h18.7v2.34Zm0-14.95h-18.7v-2.34h18.7v2.34Zm0-15.51h-18.7v-2.34h18.7v2.34Zm0-15.3h-18.7v-2.34h18.7v2.34Zm0-14.91h-18.7v-2.34h18.7v2.34Z" fill="#fff"/>
  <rect x="10.59" y="67.64" width="0" height="2.34" fill="#fff"/>
  <rect x="10.59" y="82.59" width="0" height="2.34" fill="#fff"/>
  <rect x="10.59" y="36.83" width="0" height="2.34" fill="#fff"/>
  <rect x="10.59" y="21.93" width="0" height="2.34" fill="#fff"/>
  <rect x="10.59" y="52.13" width="0" height="2.34" fill="#fff"/>
</svg>